<svg height="464pt" viewBox="-16 0 464 464" width="464pt" xmlns="http://www.w3.org/2000/svg"><path d="m32 0h400v464h-400zm0 0" fill="#36afad"/><path d="m400 224h-304l152-152zm0 0" fill="#e9686a"/><path d="m0 48h64v32h-64zm0 0" fill="#fdbd40"/><path d="m0 216h64v32h-64zm0 0" fill="#fdbd40"/><path d="m0 384h64v32h-64zm0 0" fill="#fdbd40"/><path d="m136 224h224v112h-224zm0 0" fill="#f9cc91"/><path d="m176 144-48 48v-96h48zm0 0" fill="#f9cc91"/><path d="m112 64h80v32h-80zm0 0" fill="#ce926a"/><g fill="#fff"><path d="m248 128c13.253906 0 24 10.746094 24 24v40h-48v-40c0-13.253906 10.746094-24 24-24zm0 0"/><path d="m296 256c17.671875 0 32 14.328125 32 32v48h-64v-48c0-17.671875 14.328125-32 32-32zm0 0"/><path d="m360 376h-224c-4.417969 0-8-3.582031-8-8s3.582031-8 8-8h224c4.417969 0 8 3.582031 8 8s-3.582031 8-8 8zm0 0"/><path d="m360 408h-224c-4.417969 0-8-3.582031-8-8s3.582031-8 8-8h224c4.417969 0 8 3.582031 8 8s-3.582031 8-8 8zm0 0"/><path d="m408 72h-16v-32h-80v-16h96zm0 0"/><path d="m392 88h16v32h-16zm0 0"/></g></svg>